<?xml version="1.0" standalone="no"?>
<!DOCTYPE svg PUBLIC "-//W3C//DTD SVG 1.1//EN" "http://www.w3.org/Graphics/SVG/1.1/DTD/svg11.dtd" >
<svg xmlns="http://www.w3.org/2000/svg">
<metadata>
Created by FontForge 20120731 at Tue Aug 23 10:53:10 2016
 By admin
</metadata>
<defs>
<font id="iconfont" horiz-adv-x="1024" >
  <font-face 
    font-family="iconfont"
    font-weight="500"
    font-stretch="normal"
    units-per-em="1024"
    panose-1="2 0 6 3 0 0 0 0 0 0"
    ascent="896"
    descent="-128"
    x-height="792"
    bbox="-0.276923 -128.143 1309 896.783"
    underline-thickness="50"
    underline-position="-100"
    unicode-range="U+0078-E628"
  />
<missing-glyph horiz-adv-x="374" 
d="M34 0v682h272v-682h-272zM68 34h204v614h-204v-614z" />
    <glyph glyph-name=".notdef" horiz-adv-x="374" 
d="M34 0v682h272v-682h-272zM68 34h204v614h-204v-614z" />
    <glyph glyph-name=".null" horiz-adv-x="0" 
 />
    <glyph glyph-name="nonmarkingreturn" horiz-adv-x="341" 
 />
    <glyph glyph-name="x" unicode="x" horiz-adv-x="1001" 
d="M281 543q-27 -1 -53 -1h-83q-18 0 -36.5 -6t-32.5 -18.5t-23 -32t-9 -45.5v-76h912v41q0 16 -0.5 30t-0.5 18q0 13 -5 29t-17 29.5t-31.5 22.5t-49.5 9h-133v-97h-438v97zM955 310v-52q0 -23 0.5 -52t0.5 -58t-10.5 -47.5t-26 -30t-33 -16t-31.5 -4.5q-14 -1 -29.5 -0.5
t-29.5 0.5h-32l-45 128h-439l-44 -128h-29h-34q-20 0 -45 1q-25 0 -41 9.5t-25.5 23t-13.5 29.5t-4 30v167h911zM163 247q-12 0 -21 -8.5t-9 -21.5t9 -21.5t21 -8.5q13 0 22 8.5t9 21.5t-9 21.5t-22 8.5zM316 123q-8 -26 -14 -48q-5 -19 -10.5 -37t-7.5 -25t-3 -15t1 -14.5
t9.5 -10.5t21.5 -4h37h67h81h80h64h36q23 0 34 12t2 38q-5 13 -9.5 30.5t-9.5 34.5q-5 19 -11 39h-368zM336 498v228q0 11 2.5 23t10 21.5t20.5 15.5t34 6h188q31 0 51.5 -14.5t20.5 -52.5v-227h-327z" />
    <glyph glyph-name="uniE600" unicode="&#xe600;" 
d="M723 456q0 18 -12 30.5t-29.5 12.5t-30 -12.5t-12.5 -30.5v-359q0 -18 12.5 -30.5t30 -12.5t29.5 12.5t12 30.5v359zM554 456q0 18 -12 30.5t-30 12.5t-30 -12.5t-12 -30.5v-359q0 -18 12 -30.5t30 -12.5t30 12.5t12 30.5v359zM385 456q0 18 -12.5 30.5t-30 12.5
t-29.5 -12.5t-12 -30.5v-359q0 -18 12 -30.5t29.5 -12.5t30 12.5t12.5 30.5v359zM808 542v-86v-445q0 -18 -12.5 -30.5t-29.5 -12.5h-508q-17 0 -29.5 12.5t-12.5 30.5v445v86v43h592v-43zM174 671q0 18 12 30.5t30 12.5h211v43q0 18 12.5 30.5t30.5 12.5h84
q18 0 30.5 -12.5t12.5 -30.5v-43h211q18 0 30 -12.5t12 -30.5v-43h-676v43z" />
    <glyph glyph-name="uniE601" unicode="&#xe601;" 
d="M922 414q-1 21 -13 39q-1 1 -78.5 84t-154.5 165l-78 83q-31 34 -78 34v0h-1h-1h-1q-46 0 -78 -34q-308 -329 -310 -332q-13 -18 -13 -39v-6q0 -33 23.5 -57t57.5 -24h20v-292q0 -36 28 -61t67 -25t67 25t28 61v292h110h3h110v-292q0 -36 28 -61t67.5 -25t67.5 25t28 61
v292h19q34 0 58 24t24 57v1v1v4zM801 708l61 -65q7 -7 16.5 -7.5t15.5 6.5h1l1 1q4 4 5 10v3q1 2 1 3l7 120q1 13 -8 23v0h-1q-9 10 -22 10l-120 -1h-3h-3q-6 -1 -11 -5l-1 -1q-7 -6 -7 -15.5t6 -16.5z" />
    <glyph glyph-name="uniE602" unicode="&#xe602;" 
d="M523 -104q97 0 185.5 38t152 101.5t101.5 152t38 185.5t-38 185t-101.5 152t-152 101.5t-185.5 37.5t-185 -37.5t-152 -101.5t-101.5 -152t-37.5 -185t37.5 -185.5t101.5 -152t152 -101.5t185 -38zM275 392h496v-38h-496v38zM504 621h38v-496h-38v496z" />
    <glyph glyph-name="uniE603" unicode="&#xe603;" 
d="M825 -44q17 0 28.5 -12.5t11.5 -30t-11.5 -29.5t-28.5 -12h-720q-17 0 -29 12.5t-12 29.5t12 29.5t29 12.5h720zM103 12l98 269l159 -164zM393 148l-161 165l437 446l161 -166zM860 628l-161 165l80 82q20 21 48.5 21t48.5 -21l64 -66q20 -20 20 -49t-20 -50z" />
    <glyph glyph-name="uniE604" unicode="&#xe604;" horiz-adv-x="1161" 
d="M477 -95l135 188l-135 40v-228zM383 229l473 409l-366 -440l410 -129l211 827l-1111 -548z" />
    <glyph glyph-name="uniE605" unicode="&#xe605;" 
d="M512 -128q-104 0 -199 40.5t-163.5 109t-109 163.5t-40.5 199t40.5 199t109 163.5t163.5 109t199 40.5t199 -40.5t163.5 -109t109 -163.5t40.5 -199t-40.5 -199t-109 -163.5t-163.5 -109t-199 -40.5zM512 832q-91 0 -174 -35.5t-143 -95.5t-95.5 -143t-35.5 -174
t35.5 -174t95.5 -143t143 -95.5t174 -35.5t174 35.5t143 95.5t95.5 143t35.5 174t-35.5 174t-95.5 143t-143 95.5t-174 35.5zM557 384l136 -136q9 -9 9 -22.5t-9 -22.5t-22.5 -9t-22.5 9l-136 136l-136 -137q-10 -9 -23 -9t-22.5 9.5t-9.5 22.5t9 23l137 136l-136 136
q-9 9 -9 22.5t9 22.5t22.5 9t22.5 -9l136 -136l137 138q10 9 23.5 9t22.5 -9t9 -22.5t-9 -23.5z" />
    <glyph glyph-name="uniE606" unicode="&#xe606;" 
d="M850 896h-676q-56 0 -95.5 -43t-39.5 -103v-732q0 -60 39.5 -103t95.5 -43h676q56 0 95.5 43t39.5 103v732q0 60 -39.5 103t-95.5 43zM207 628h113v122h-113v-122zM207 18h113v122h-113v-122zM349 408l-113 -82h-1q-5 -3 -9 -3t-8 2l-2 2l-3 2l-38 41q-5 6 -5 14t5.5 14
t13 6t13.5 -6l26 -29l100 73q7 4 14.5 2.5t11.5 -8.5t2.5 -15.5t-7.5 -12.5zM826 49h-375q-12 0 -20 9t-8 21.5t8 21.5t20 9h375q12 0 20 -9t8 -21.5t-8 -21.5t-20 -9zM826 354h-375q-12 0 -20 8.5t-8 21.5t8 21.5t20 8.5h375q12 0 20 -8.5t8 -21.5t-8 -21.5t-20 -8.5z
M826 658h-375q-12 0 -20 9t-8 21.5t8 21.5t20 9h375q12 0 20 -9t8 -21.5t-8 -21.5t-20 -9z" />
    <glyph glyph-name="uniE607" unicode="&#xe607;" horiz-adv-x="1229" 
d="M515 896q89 0 171 -9t142 -23t105 -31.5t68 -35t23 -33.5l2 -152q12 -2 56 -17t94 -42t50 -49l3 -193q0 -38 -46 -67t-127 -45q-20 -4 -37 -7l2 -130q0 -38 -46 -67t-128 -46q-141 -29 -337 -29t-337 29q-82 17 -127.5 46t-45.5 67v192q0 19 19 37t37.5 27.5t39.5 17.5
q33 12 77 21q16 4 35 7v89q-15 3 -29 6q-82 17 -127.5 46t-45.5 67v192q0 13 24 30t70.5 34.5t107 33t142 25t165.5 9.5zM370 201q-112 25 -147 71q-10 -2 -60 -16t-51 -16q1 0 19 -4.5t36.5 -9t47 -10t54 -9.5t53 -6t48.5 0zM122 126v-71q29 -6 61 -13v69q-30 5 -61 15z
M863 116v-69q56 12 63 14q-1 5 -1 11v62q-27 -10 -62 -18zM803 36v69q-35 -6 -76 -10v-70q42 5 76 11zM668 19v71q-51 -4 -106 -5v-71q54 2 106 5zM399 87v-70q51 -3 103 -3v70q-53 0 -103 3zM340 20v71q-50 4 -97 10v-70q44 -6 97 -11zM1002 521q-18 -17 -103 -43.5
t-114 -30.5q23 -2 53 -0.5t54.5 3.5t53.5 6t50.5 8t44.5 8.5t36.5 8t26 6.5t13.5 3q-1 2 -52.5 16t-62.5 15zM330 375v-71q38 -8 61 -12v69q-2 0 -5 0.5t-5 1.5q-27 5 -51 12zM1072 366v-69q54 11 63 14q-1 5 -1 10v63q-28 -10 -62 -18zM1012 285v70q-36 -6 -76 -10v-70
q42 4 76 10zM876 269v70q-50 -3 -106 -5v-70q52 1 106 5zM608 336v-70q52 -2 102 -3v71q-51 0 -102 2zM548 270v70q-50 4 -97 11v-70q42 -6 97 -11zM128 636v-71q26 -6 61 -13v69q-33 6 -61 15zM869 627v-70q54 11 63 14q-1 5 -1 11v63q-27 -11 -62 -18zM809 546v69
q-36 -6 -76 -10v-70q41 4 76 11zM673 529v71q-51 -4 -105 -5v-71q55 2 105 5zM405 597v-70q51 -3 103 -3v70q-53 0 -103 3zM345 530v71q-51 4 -96 10v-70q44 -6 96 -11zM118 750q25 -6 79 -17q130 -26 318 -26t318 26q55 11 81 17q0 2 -13 6.5t-32 10t-36 9.5
q-130 26 -318 26t-318 -26q-16 -4 -35 -9.5t-31 -10.5t-13 -6z" />
    <glyph glyph-name="uniE608" unicode="&#xe608;" 
d="M793 201q16 21 34 38q15 14 35 25.5t41 9.5q31 -2 51 -14.5t32 -32t16.5 -44t3 -50t-8.5 -49t-17.5 -44t-23.5 -37.5t-25 -31q-20 -21 -41 -39.5t-40.5 -31.5t-35 -21t-24.5 -8q-10 0 -25 7.5t-33 21t-38 31.5t-40 38q-12 13 -27 30t-27.5 37t-22 44t-10.5 50.5t5.5 50
t19 42t31 31t42.5 17.5q11 3 23 1t23 -6.5t21.5 -11t19.5 -13.5q21 -17 41 -41zM520 67q4 -21 13 -43t27 -45t45 -45.5t69 -41.5q-27 -6 -64 -10q-32 -5 -77 -7.5t-103 -2.5q-30 0 -68.5 2t-80.5 6t-83 9t-74.5 10t-57 10t-30.5 10q-10 8 -15.5 50t4.5 108q6 38 30.5 57.5
t58 31.5t68.5 21t63 26q21 13 33 26t16.5 25t4.5 25.5t-1 29.5q-2 23 -16 37t-31 28q-8 7 -14.5 20t-11.5 26q-6 15 -11 33q-7 2 -14 7q-6 5 -12.5 14t-12.5 26q-6 18 -4.5 32t6 25.5t13.5 21.5q0 38 4 77q4 33 14 70.5t32 66.5q19 29 43 47.5t48.5 28.5t49.5 13.5t49 3.5
q30 0 57.5 -7t51 -18.5t42 -25.5t29.5 -28q26 -33 38.5 -72t17.5 -75q5 -41 5 -82q7 -5 11 -14q5 -7 7.5 -18t0.5 -28q-2 -22 -9 -34.5t-15 -19.5q-9 -8 -19 -11q-5 -18 -11 -33q-5 -13 -11.5 -26t-14.5 -20q-9 -8 -14.5 -16t-8.5 -16q-2 -8 -6 -18t-11 -20
q-48 -73 -55.5 -132t5.5 -115z" />
    <glyph glyph-name="uniE609" unicode="&#xe609;" 
d="M329 796q27 0 46.5 -19t19.5 -47v-264q0 -27 -19.5 -46.5t-46.5 -19.5h-264q-27 0 -46 19.5t-19 46.5v264q0 28 19 47t46 19h264zM329 268q27 0 46.5 -19t19.5 -47v-265q0 -27 -19.5 -46t-46.5 -19h-264q-27 0 -46 19t-19 46v265q0 28 19 47t46 19h264zM856 268
q28 0 47 -19t19 -47v-265q0 -27 -19 -46t-47 -19h-263q-27 0 -46.5 19t-19.5 46v265q0 28 19.5 47t46.5 19h263zM1003 680q21 -22 21 -50.5t-21 -48.5l-196 -196q-21 -21 -49 -21t-49 21l-196 196q-20 20 -20 48.5t20 50.5l196 196q21 20 49 20t49 -20z" />
    <glyph glyph-name="uniE60A" unicode="&#xe60a;" 
d="M512 896q-104 0 -199 -40.5t-163.5 -109t-109 -163.5t-40.5 -199t40.5 -199t109 -163.5t163.5 -109t199 -40.5t199 40.5t163.5 109t109 163.5t40.5 199t-40.5 199t-109 163.5t-163.5 109t-199 40.5zM956 384q0 -90 -35 -173q-34 -79 -95.5 -140.5t-140.5 -95.5
q-83 -35 -173 -35t-173 35q-79 34 -140.5 95.5t-95.5 140.5q-35 83 -35 173t35 173q34 79 95.5 140.5t140.5 95.5q83 35 173 35t173 -35q79 -34 140.5 -95.5t95.5 -140.5q35 -83 35 -173zM749 282q-13 -88 -80 -146.5t-157 -58.5t-157 58.5t-80 146.5h474zM627 503
q0 -28 20 -48t48.5 -20t48.5 20t20 48t-20 48t-48.5 20t-48.5 -20t-20 -48zM290 503q0 -28 20 -48t48.5 -20t48.5 20t20 48t-20 48t-48.5 20t-48.5 -20t-20 -48z" />
    <glyph glyph-name="uniE60B" unicode="&#xe60b;" 
d="M512 896q-104 0 -199 -40.5t-163.5 -109t-109 -163.5t-40.5 -199t40.5 -199t109 -163.5t163.5 -109t199 -40.5t199 40.5t163.5 109t109 163.5t40.5 199t-40.5 199t-109 163.5t-163.5 109t-199 40.5zM956 384q0 -90 -35 -173q-34 -79 -95.5 -140.5t-140.5 -95.5
q-83 -35 -173 -35t-173 35q-79 34 -140.5 95.5t-95.5 140.5q-35 83 -35 173t35 173q34 79 95.5 140.5t140.5 95.5q83 35 173 35t173 -35q79 -34 140.5 -95.5t95.5 -140.5q35 -83 35 -173zM290 639q0 -28 20 -48t48.5 -20t48.5 20t20 48.5t-20 48.5t-48.5 20t-48.5 -20
t-20 -49zM515 262l-201 116l-37 -65l163 -94l-163 -94l37 -65l201 116l200 -116l38 65l-164 94l164 94l-38 65zM627 639.5q0 -28.5 20 -48.5t48.5 -20t48.5 20t20 48.5t-20 48.5t-48.5 20t-48.5 -20t-20 -48.5z" />
    <glyph glyph-name="uniE60C" unicode="&#xe60c;" 
d="M512 -128q-104 0 -199 40.5t-163.5 109t-109 163.5t-40.5 199t40.5 199t109 163.5t163.5 109t199 40.5t199 -40.5t163.5 -109t109 -163.5t40.5 -199t-40.5 -199t-109 -163.5t-163.5 -109t-199 -40.5zM96 384q0 -113 55.5 -209t151.5 -151.5t209 -55.5q144 0 258 90
l-584 584q-90 -114 -90 -258zM512 800q-144 0 -258 -90l584 -584q90 114 90 258q0 113 -55.5 209t-151.5 151.5t-209 55.5z" />
    <glyph glyph-name="uniE60D" unicode="&#xe60d;" 
d="M819 896v-1024l-614 512z" />
    <glyph glyph-name="uniE60E" unicode="&#xe60e;" 
d="M775 662h85v-85q0 -8 6.5 -13t16 -5t16 5t6.5 13v85h85q7 0 12 6.5t5 15.5t-5 15.5t-12 6.5h-85v86q0 7 -6.5 12t-16 5t-16 -5t-6.5 -12v-86h-85q-7 0 -12.5 -6.5t-5.5 -15.5t5.5 -15.5t12.5 -6.5zM690 359q12 0 20 6.5t8 16.5t-8 16.5t-20 6.5h-159v25l153 148
q8 7 7 16.5t-9.5 16t-20 5.5t-19.5 -8l-139 -134l-130 134q-7 7 -18.5 8t-20.5 -5t-10 -15.5t6 -17.5l146 -149v-24h-142q-12 0 -20 -6.5t-8 -16.5t8 -16.5t20 -6.5h142v-38h-142q-12 0 -20 -7t-8 -16.5t8 -16.5t20 -7h142v-121q0 -10 8 -16.5t19.5 -6.5t19.5 6.5t8 16.5
v121h159q12 0 20 7t8 16.5t-8 16.5t-20 7h-159v38h159zM1008 510q-2 9 -10.5 14t-18 2.5t-14.5 -10.5t-2 -18q14 -56 14 -114q0 -94 -37 -180.5t-99 -148.5t-148.5 -99t-180.5 -37t-180.5 37t-148.5 99t-99 148.5t-37 180.5t37 180.5t99 148.5t148.5 99t180.5 37
q103 0 195 -43q9 -4 18.5 -0.5t13.5 12t0.5 18t-12.5 13.5q-102 47 -215 47q-103 0 -196.5 -38.5t-166 -111t-111 -166t-38.5 -196.5t38.5 -196.5t111 -166t166 -111t196.5 -38.5t196.5 38.5t166 111t111 166t38.5 196.5q0 64 -16 126z" />
    <glyph glyph-name="uniE60F" unicode="&#xe60f;" 
d="M860 662h45h85q7 0 12 6.5t5 15.5t-5 15.5t-12 6.5h-85h-45h-85q-7 0 -12.5 -6.5t-5.5 -15.5t5.5 -15.5t12.5 -6.5h85zM690 359q12 0 20 6.5t8 16.5t-8 16.5t-20 6.5h-159v25l153 148q8 7 7 16.5t-9.5 16t-20 5.5t-19.5 -8l-139 -134l-130 134q-7 7 -18.5 8t-20.5 -5
t-10 -15.5t6 -17.5l146 -149v-24h-142q-12 0 -20 -6.5t-8 -16.5t8 -16.5t20 -6.5h142v-38h-142q-12 0 -20 -7t-8 -16.5t8 -16.5t20 -7h142v-121q0 -10 8 -16.5t19.5 -6.5t19.5 6.5t8 16.5v121h159q12 0 20 7t8 16.5t-8 16.5t-20 7h-159v38h159zM1008 510q-2 9 -10.5 14
t-18 2.5t-14.5 -10.5t-2 -18q14 -56 14 -114q0 -94 -37 -180.5t-99 -148.5t-148.5 -99t-180.5 -37t-180.5 37t-148.5 99t-99 148.5t-37 180.5t37 180.5t99 148.5t148.5 99t180.5 37q103 0 195 -43q9 -4 18.5 -0.5t13.5 12t0.5 18t-12.5 13.5q-102 47 -215 47
q-103 0 -196.5 -38.5t-166 -111t-111 -166t-38.5 -196.5t38.5 -196.5t111 -166t166 -111t196.5 -38.5t196.5 38.5t166 111t111 166t38.5 196.5q0 64 -16 126z" />
    <glyph glyph-name="uniE610" unicode="&#xe610;" 
d="M897 896h-770q-26 0 -44.5 -17.5t-18.5 -41.5v-217q0 -23 16 -39.5t40 -18.5q1 -1 4 -1l192 -97q-68 -45 -108 -115t-40 -152q0 -88 46 -163t125.5 -118.5t172.5 -43.5t172.5 43.5t125.5 118.5t46 163q0 82 -40 152t-108 115l192 97q25 1 42.5 18.5t17.5 40.5v217
q0 24 -18.5 41.5t-44.5 17.5zM689 256l-104 -100l39 -114l-112 73l-112 -73l39 115l-105 101l142 17l36 100l36 -100zM256 896h64v-448h-64v448zM704 896h64v-384h-64v384z" />
    <glyph glyph-name="uniE611" unicode="&#xe611;" horiz-adv-x="1025" 
d="M1021 498q-9 32 -41 37l-292 54l-130 277q-14 30 -46 30t-46 -30l-130 -277l-292 -56q-32 -5 -41.5 -37t13.5 -56l211 -205l-56 -300q-5 -33 21 -53q7 -7 19 -8.5t21 0.5t14 4l266 138l265 -138q5 -3 13 -5t20.5 -0.5t20.5 9.5q26 20 20 53l-53 300l211 207q22 24 12 56z
" />
    <glyph glyph-name="uniE612" unicode="&#xe612;" 
d="M846 455v128q0 85 -44.5 157t-121.5 114t-168 42t-168 -42t-121.5 -114t-44.5 -157v-127q-41 -15 -41 -57v-176q0 -95 50 -176t136.5 -128t188.5 -47t188.5 47t136.5 128t50 176v176q0 40 -41 56zM583 78q1 -4 -1.5 -7t-7.5 -3h-123q-4 0 -7 3t-2 7l20 98q-25 21 -25 51
q0 29 22 49.5t53 20.5t53 -20.5t22 -49.5t-23 -50zM731 461h-438v122q0 85 64 145t155 60t155 -60t64 -145v-122z" />
    <glyph glyph-name="uniE613" unicode="&#xe613;" 
d="M205 896v-1024l614 512z" />
    <glyph glyph-name="uniE614" unicode="&#xe614;" 
d="M836 -128l-665 1q-72 7 -121.5 60t-49.5 125v563q0 77 55.5 131.5t133.5 54.5h647q77 0 132.5 -54.5t55.5 -131.5v-563q0 -77 -55.5 -131.5t-132.5 -54.5zM188 731q-46 0 -78.5 -32t-32.5 -78v-563q0 -46 32.5 -78t78.5 -32h648q46 0 78.5 32t32.5 78v563q0 46 -32.5 78
t-78.5 32h-648zM718 623q-21 0 -36 14.5t-15 35.5v173q0 20 15 35t36 15t36 -15t15 -35v-173q0 -21 -15 -35.5t-36 -14.5zM295 623q-21 0 -36 14.5t-15 35.5v173q0 20 15 35t36 15t36 -15t15 -35v-173q0 -21 -15 -35.5t-36 -14.5zM537 75h-49q-21 0 -36 14.5t-15 35.5t15 36
t36 15h49q21 0 36 -15t15 -36t-15 -35.5t-36 -14.5zM974 471h-894h-6q-16 0 -23.5 1t-14.5 7t-7 18q0 21 15 35.5t36 14.5h894q18 0 22 -10t4 -34v-6v-6q0 -16 -1 -23.5t-7 -14t-18 -6.5v24zM308 233h-49q-21 0 -36 15t-15 35.5t15 35.5t36 15h49q22 0 37 -14.5t15 -35.5
t-15 -36t-37 -15zM537 233h-49q-21 0 -36 15t-15 35.5t15 35.5t36 15h49q21 0 36 -14.5t15 -35.5t-15 -36t-36 -15zM765 233h-49q-21 0 -36 15t-15 35.5t15 35.5t36 15h49q21 0 36 -14.5t15 -35.5t-15 -36t-36 -15zM308 75h-49q-21 0 -36 14.5t-15 35.5t15 36t36 15h49
q22 0 37 -15t15 -36t-15 -35.5t-37 -14.5zM765 75h-49q-21 0 -36 14.5t-15 35.5t15 36t36 15h49q21 0 36 -15t15 -36t-15 -35.5t-36 -14.5z" />
    <glyph glyph-name="uniE615" unicode="&#xe615;" 
d="M1011 -51l-248 253q-6 7 -14 10q85 114 85 258q0 116 -56 214t-152 155t-209 57t-209 -57t-152 -155t-56 -214t56 -214t152 -155t209 -57q158 0 276 106q3 -6 8 -11l248 -254q13 -13 31 -13t31 13t13 32t-13 32zM417 111q-95 0 -176 48t-128 130.5t-47 180t47 180.5
t128 131t176 48t176 -48t128 -131t47 -180.5t-47 -180t-128 -130.5t-176 -48z" />
    <glyph glyph-name="uniE616" unicode="&#xe616;" horiz-adv-x="1088" 
d="M998 352q1 16 1 33q0 104 -40 199q-38 92 -107 162.5t-158 109.5q-93 40 -194.5 40t-194.5 -40q-90 -39 -159 -109.5t-107 -162.5q-39 -95 -39 -199t39 -199q38 -92 107 -162.5t159 -109.5q93 -40 194 -40q91 0 175 32q81 30 147 88q8 6 8.5 16.5t-6 18t-16 8.5t-17.5 -6
q-61 -52 -136 -80t-155 -28q-91 0 -175 36.5t-144.5 98.5t-96 147.5t-35.5 179.5t35.5 179.5t96 147.5t144.5 98.5t175.5 36.5t175 -36.5t144 -98.5t96.5 -147.5t36 -179.5q0 -24 -3 -47l-62 68q-6 7 -16 7.5t-17.5 -6.5t-7.5 -17t6 -18l96 -105q2 -2 6 -4q4 -3 9 -3
q2 -1 4 0h2q11 0 18 7l96 105q6 8 6 18t-7.5 17t-17.5 6.5t-17 -7.5zM871 137.5q0 -9.5 6.5 -16.5t16 -7t16.5 7t7 16.5t-7 16.5t-16.5 7t-16 -7t-6.5 -16.5zM690 357q12 0 20 7t8 16.5t-8 16.5t-20 7h-159v24l153 148q8 7 7 17t-9.5 16t-20 5.5t-19.5 -7.5l-139 -135
l-130 134q-7 8 -18.5 9t-20.5 -5t-10 -16t6 -17l146 -150v-23h-142q-12 0 -20 -7t-8 -16.5t8 -16.5t20 -7h142v-38h-142q-12 0 -20 -6.5t-8 -16.5t8 -16.5t20 -6.5h142v-121q0 -10 8 -17t19.5 -7t19.5 7t8 17v121h159q12 0 20 6.5t8 16.5t-8 16.5t-20 6.5h-159v38h159z" />
    <glyph glyph-name="uniE617" unicode="&#xe617;" horiz-adv-x="1161" 
d="M557 884l-282 -241l-225 1q-20 0 -34 -15q-15 -14 -15 -35l-1 -403q0 -22 14.5 -36.5t34.5 -14.5h228l280 -240q14 -12 32 -12q11 0 21 5q28 13 28 45v908q0 32 -28.5 45.5t-52.5 -7.5zM800 639q-18 9 -37 2t-28 -25.5t-2 -38t25 -29.5q4 -2 9 -5.5t18.5 -16.5t23 -28.5
t17.5 -43t8 -58.5q0 -34 -7.5 -63t-16.5 -45t-21.5 -29.5t-17 -17t-8.5 -6.5q-18 -9 -24.5 -29t2.5 -38q14 -28 44 -28q12 0 22 5q6 4 15.5 10t30.5 27t37 47t29 70.5t13 96.5q0 49 -13.5 92.5t-30.5 69t-39.5 46t-32 26.5t-16.5 9zM953 787q-17 11 -37 7t-31 -21.5
t-6.5 -38t20.5 -31.5q7 -5 16.5 -13t32 -35.5t39 -59.5t30 -87t13.5 -116.5t-13 -116t-29 -87t-37 -59.5t-30.5 -35.5t-15.5 -12.5q-17 -11 -21 -31.5t7 -38.5q15 -22 41 -22q15 0 27 8q9 6 21.5 16.5t41 45.5t50 76.5t39 110.5t17.5 146.5t-18 146.5t-40.5 110.5t-52.5 76
t-43 45.5t-21 16z" />
    <glyph glyph-name="uniE618" unicode="&#xe618;" 
d="M972 76q5 -15 8 -39q0 -7 1 -9t1 -10q0 -23 -3 -45q-4 -21 -11 -33q-5 -7 -29 -15q-18 -6 -62.5 -16.5t-147.5 -23.5t-209 -13q-97 0 -200 9.5t-153 17.5t-77 14q-44 10 -53 17q-11 8 -17 50q-2 23 -1.5 33t6.5 45q6 38 30 57q25 19 58 30q128 44 149 49q36 9 62 27
q21 12 33.5 25t16.5 25q5 12 5 25q0 11 -1 29q-3 24 -16 37q-16 15 -32 28q-8 7 -14 20q-5 11 -11 26q-5 13 -10 31q-8 2 -15 7q-6 5 -13 14t-13 27q-5 17 -3 31q1 14 6 24q3 10 12 21q-1 41 4 78q4 32 15 69t31 66q20 28 44 45q24 18 48 28t50 15q27 4 49 4q30 0 57 -7
q28 -8 50 -18q26 -13 42 -25q19 -14 30 -28q26 -33 39 -72q13 -40 18 -74q6 -39 5 -81q7 -4 11 -12q4 -9 7 -19q2 -11 0 -27q-3 -20 -10 -34q-7 -13 -14 -20q-9 -8 -20 -11q-4 -16 -9 -32q-5 -12 -12 -26q-7 -13 -15 -19q-8 -8 -17 -14q-7 -5 -14 -12q-7 -6 -11 -14
q-4 -10 -6 -21q-3 -15 -2 -31t8 -32q8 -16 24 -30t44 -25q26 -11 56 -18q9 -2 34 -12t53 -21.5t33 -13.5q28 -11 50 -27q22 -18 31 -44zM517 28q5 0 16 7q12 8 21 16q10 9 17.5 18t7.5 14q0 6 -3 22q-1 4 -7 33q-2 7 -4.5 19t-3.5 17q-3 11 -8 30q11 8 18 17q7 10 7 20
q0 8 -6 17q-5 8 -12 15q-12 9 -18 14h-51q-10 -7 -17 -14t-12 -15t-5 -16q0 -6 8 -16q8 -11 19 -20q-5 -13 -9 -26q-5 -17 -9 -36q-6 -22 -8 -36q-4 -16 -4 -25q0 -5 8 -14q8 -10 18 -18q11 -9 21 -16q11 -7 16 -7z" />
    <glyph glyph-name="uniE619" unicode="&#xe619;" 
d="M511 896q-104 0 -198.5 -40.5t-163 -109t-109 -163t-40.5 -198.5t40.5 -198.5t109 -162.5t163 -108.5t198.5 -40.5t199 40.5t163.5 108.5t109 162.5t40.5 198.5t-40.5 198.5t-109 163t-163.5 109t-199 40.5zM534 106h50v239h-50v-239zM800 222q-20 -29 -62 -29h-58v-87
h-49v239h109q34 0 54 -20.5t20 -55.5q0 -26 -14 -47zM255 106v512h-46v46h186v-232l234 232h185z" />
    <glyph glyph-name="uniE61A" unicode="&#xe61a;" horiz-adv-x="1280" 
d="M104 482q-43 0 -73.5 -30.5t-30.5 -73.5t30.5 -73t73.5 -30t73.5 30t30.5 73t-30.5 73.5t-73.5 30.5zM104 896q-43 0 -73.5 -30.5t-30.5 -73.5t30.5 -73t73.5 -30t73.5 30t30.5 73t-30.5 73.5t-73.5 30.5zM104 56q-38 0 -65 -27t-27 -65t27 -65t65 -27t65 27t27 65
t-27 65t-65 27zM311 -105h969v138h-969v-138zM311 309h969v138h-969v-138zM311 723h969v138h-969v-138z" />
    <glyph glyph-name="uniE61B" unicode="&#xe61b;" horiz-adv-x="1064" 
d="M311 682h403q12 0 20 8t8 20t-8 20t-20 8h-403q-12 0 -20 -8t-8 -20t8 -20t20 -8zM311 525h287q12 0 20.5 8t8.5 20t-8.5 20t-20.5 8h-287q-12 0 -20 -8t-8 -20t8 -20t20 -8zM895 655v212q0 12 -9 20.5t-21 8.5h-705q-12 0 -20.5 -8.5t-8.5 -20.5v-212l-73 -42l-57 -28
l-1 -558q0 -1 6 -16t16 -34.5t18 -27.5q12 -12 41.5 -23.5t36.5 -11.5h27q27 0 73 -0.5t105 -0.5t125 -1h130q66 -1 125 -1t104.5 -0.5t72.5 -0.5h27q9 0 34 12t44 30q17 18 28.5 42.5t11.5 33.5v555l-58 30zM895 589l68 -38l-68 -39v77zM207 840h611q11 0 15 -4t4 -15v-342
l-324 -184l-325 184v342q0 11 4 15t15 4zM131 512l-69 39l69 38v-77z" />
    <glyph glyph-name="uniE61C" unicode="&#xe61c;" horiz-adv-x="1332" 
d="M1205 -80l2 481h-1096v-482h-87q-11 0 -17.5 -6.5t-6.5 -17t6.5 -17t17.5 -6.5h1261q6 0 12 3.5t9 9t3 11.5q0 11 -7 17.5t-17 6.5h-80v0zM895 243v-323h-211v377h153q23 0 34.5 -4.5t17.5 -16t6 -33.5v0zM426 -80v323q0 10 1.5 17.5t3.5 12.5t6 9t8.5 7t11.5 4.5t14 2.5
t17 1h148v-377h-210zM1191 896h-1062q-22 0 -39 -10t-28 -28t-11 -39v-324q0 -32 23 -55t55 -23h1062q32 0 55 23t23 55v324q0 15 -6.5 30t-17 25t-24.5 16t-30 6v0zM228 689q-21 0 -36.5 15.5t-15.5 36.5q0 10 4 20t11.5 16.5t17 10.5t19.5 4q22 0 36.5 -15t14.5 -36
q0 -11 -4 -20t-10.5 -16.5t-16 -11.5t-20.5 -4v0zM419 689q-21 0 -36.5 15.5t-15.5 36t15.5 36t37 15.5t36 -15.5t14.5 -35.5q0 -11 -4 -20t-10.5 -16.5t-16 -11.5t-20.5 -4v0zM610 689q-21 0 -36 15.5t-15 36t15 36t36 15.5t36 -15.5t15 -35.5q0 -11 -4 -20t-10.5 -16.5
t-16 -11.5t-20.5 -4v0z" />
    <glyph glyph-name="uniE61D" unicode="&#xe61d;" horiz-adv-x="1088" 
d="M568 -128q104 0 198.5 40.5t163.5 109t109.5 163.5t40.5 199t-40.5 199t-109.5 163.5t-163.5 109t-198.5 40.5t-199 -40.5t-163.5 -109t-109 -163.5t-40.5 -199t40.5 -199t109 -163.5t163.5 -109t199 -40.5zM568 -64q91 0 174 35.5t143 95.5t95.5 143t35.5 174t-35.5 174
t-95.5 143t-143 95.5t-174 35.5t-174 -35.5t-143 -95.5t-95.5 -143t-35.5 -174t35.5 -174t95.5 -143t143 -95.5t174 -35.5zM746 359q12 0 20 6.5t8 16.5t-8 16.5t-20 6.5h-159v25l153 148q7 7 6.5 16.5t-9 16t-20 5.5t-19.5 -8l-139 -134l-130 134q-7 7 -18.5 8t-20.5 -5
t-10 -15.5t6 -17.5l146 -149v-24h-143q-11 0 -19 -6.5t-8 -16.5t8 -16.5t19 -6.5h143v-38h-143q-11 0 -19 -7t-8 -16.5t8 -16.5t19 -7h143v-121q0 -10 8 -16.5t19.5 -6.5t19.5 6.5t8 16.5v121h159q12 0 20 7t8 16.5t-8 16.5t-20 7h-159v38h159z" />
    <glyph glyph-name="uniE61E" unicode="&#xe61e;" 
d="M307 354l544 -475v1017l-544 -475v475h-205v-1024h205v482z" />
    <glyph glyph-name="uniE61F" unicode="&#xe61f;" 
d="M678 354l-544 -475v1017l544 -475v475h205v-1024h-205v482z" />
    <glyph glyph-name="uniE620" unicode="&#xe620;" 
d="M520 66q4 -20 13 -42.5t27 -45.5t45 -45t69 -42q-27 -6 -64 -10q-32 -4 -77 -6.5t-103 -2.5q-30 0 -68.5 2t-80.5 5.5t-83 8.5t-75 10.5t-57.5 10.5t-29.5 10q-10 8 -15.5 49.5t4.5 108.5q6 37 30.5 57t58 31.5t68.5 21t63 26.5q21 13 33 26t16.5 25t4.5 25.5t-1 29.5
q-2 23 -16.5 37t-30.5 28q-8 7 -14.5 20t-12.5 26q-5 15 -10 32q-7 2 -14 8q-6 5 -13 14t-12 26q-6 18 -4.5 32t5.5 25t14 22q0 38 4 77q4 33 14 70.5t32 66.5q19 29 43 47.5t48.5 28.5t49.5 13.5t49 3.5q30 0 57.5 -7t51 -18.5t42 -25.5t29.5 -28q27 -33 39 -72t17 -75
q5 -41 5 -82q7 -6 12 -14q4 -7 6.5 -18t0.5 -28q-2 -22 -9 -34.5t-15 -19.5q-9 -9 -19 -12q-5 -17 -10 -32q-6 -13 -12.5 -26t-14.5 -20q-9 -8 -14 -16t-9 -17q-2 -7 -6 -17t-11 -20q-48 -74 -55.5 -133t5.5 -115zM786.5 -71q-82.5 0 -140.5 58.5t-58 140.5t58 140.5
t140.5 58.5t140.5 -58.5t58 -140.5t-58 -140.5t-140.5 -58.5zM876 233l-76 -84v-13h64q11 0 11 -11t-11 -11v0v0h-64v-24h64q11 0 11 -11t-11 -11v0v0h-64v-54v7q0 -6 -4.5 -10t-10.5 -4t-10 4t-4 10v-7v54h-63q-5 0 -8.5 3t-3.5 8t3.5 8t8.5 3v0h63v24h-63h-1
q-4 0 -7.5 3.5t-3.5 8t3.5 7.5t7.5 3h1h63v13l-76 84q-1 2 -1.5 6t3.5 8t15 1q4 -2 8 -5.5t6 -6.5l3 -3l57 -63l58 63q9 13 19 15q7 2 10 -2t3 -8v-5z" />
    <glyph glyph-name="uniE621" unicode="&#xe621;" 
d="M856 292q70 0 119 -49.5t49 -119t-49 -118.5t-118.5 -49t-119 49t-49.5 119q0 47 24.5 86.5t65.5 61.5l-68 137q-71 -50 -156 -50q-62 0 -119 28l-77 -129q37 -31 57.5 -74.5t20.5 -93.5q0 -90 -64 -154t-154 -64t-154 64t-64 154t64 154t154 64q43 0 82 -16l79 132
q-44 38 -69 91t-25 112q0 111 79 190t190 79t190 -79t79 -190q0 -96 -62 -171l83 -166q1 1 5.5 1.5t6.5 0.5z" />
    <glyph glyph-name="uniE622" unicode="&#xe622;" 
d="M744 519l-2 86q-2 100 -71 166.5t-171 65.5h-2q-104 -3 -173.5 -72.5t-67.5 -167.5l1 -89q-54 -9 -89.5 -51.5t-34.5 -98.5l5 -279q1 -63 45 -106t105 -42l465 8q61 1 103.5 46t41.5 107l-5 279q-1 62 -45 105.5t-105 42.5zM299 597q-2 81 56.5 138t144.5 59
q84 1 141 -53t59 -137l1 -86l-401 -7zM857 91q0 -44 -30 -76t-74 -33l-464 -8q-44 -1 -75.5 30t-32.5 75l-5 280q-1 44 29.5 76t74.5 33l464 8q44 1 75.5 -30t32.5 -76zM514 386q-53 -1 -89.5 -39.5t-35.5 -91.5q1 -48 32 -83t76 -42v-1v-1l1 -65q0 -8 6.5 -14.5t15 -6.5
t14.5 6.5t6 15.5l-1 65v1v1q45 8 74.5 44.5t28.5 83.5q0 54 -38 91t-90 36zM517 171q-35 0 -60 24.5t-25.5 60t23.5 61.5t59 26.5t60.5 -24.5t26 -60.5t-24 -61t-59.5 -26.5z" />
    <glyph glyph-name="uniE623" unicode="&#xe623;" 
d="M97 -25q0 -16 11.5 -27.5t27.5 -11.5h752q15 0 26 11.5t11 27.5v33h-828v-33zM876 226h-179q-8 8 -15 16l-8 8q-20 23 -29 44.5t-11 37.5t6.5 38.5t16 36t24.5 39.5q5 8 7 12q14 17 22 33h1q27 52 27 111q0 95 -67.5 163t-163.5 68t-163.5 -68t-67.5 -163q0 -80 49 -143
q7 -12 22 -32t22 -31.5t16 -29.5t8.5 -32t-5.5 -32t-22 -37.5t-44 -39.5h-184q-15 0 -28 -19t-13 -36v-132h828v132q0 22 -14 39t-35 17z" />
    <glyph glyph-name="uniE624" unicode="&#xe624;" 
d="M515.5 775q69.5 0 119 -49t49.5 -118.5t-49.5 -119t-119 -49.5t-118.5 49.5t-49 119t49 118.5t118.5 49zM516 830q-93 0 -158 -65t-65 -157.5t65 -158t157.5 -65.5t158 65.5t65.5 158t-65.5 157.5t-157.5 65zM920 -62q-10 0 -18 7t-9 17q-15 145 -123 242t-254 97
t-254 -97t-124 -242q-1 -11 -9.5 -18t-20 -6t-18.5 10t-6 20q8 80 44.5 151t96.5 125t135 83t156 29t156 -29t135 -83t96 -125t45 -151q1 -11 -6 -20t-19 -10h-3z" />
    <glyph glyph-name="uniE625" unicode="&#xe625;" horiz-adv-x="1098" 
d="M502 66q4 -20 13 -42.5t27 -45.5t45 -45t69 -42q-27 -6 -64 -10q-32 -4 -77 -6.5t-103 -2.5q-30 0 -68.5 2t-81 5.5t-83 8.5t-74.5 10.5t-57.5 10.5t-29.5 10q-10 8 -15.5 49.5t4.5 108.5q6 37 30.5 57t58 31.5t68.5 21t63 26.5q21 13 33 26t16.5 25t4.5 25.5t-1 29.5
q-2 23 -16.5 37t-30.5 28q-8 7 -15 20t-12 26q-5 15 -10 32q-7 2 -14 8q-6 5 -13 14t-12 26q-6 18 -4.5 32t5.5 25t14 22q0 38 4 77q4 33 14 70.5t32 66.5q19 29 43 47.5t48.5 28.5t49.5 13.5t49 3.5q30 0 57.5 -7t51 -18.5t42 -25.5t29.5 -28q26 -33 38.5 -72t17.5 -75
q5 -41 5 -82q7 -6 11 -14q5 -7 7.5 -18t0.5 -28q-2 -22 -9 -34.5t-15 -19.5q-9 -9 -19 -12q-6 -17 -11 -32q-5 -13 -11.5 -26t-14.5 -20q-9 -8 -14.5 -16t-8.5 -17q-3 -7 -6 -17q-4 -10 -11 -20q-48 -74 -55.5 -133t5.5 -115zM1017 340q-81 81 -194 81t-193.5 -80.5
t-80.5 -194t80 -194t194 -80.5t194.5 80.5t80 194t-80.5 193.5zM925 161v-54h-75v-21h75v-54h-75v-58h-59v58h-74v54h74v21h-74v54h45l-69 134h68l44 -92q11 -21 12 -27q2 6 12 27l45 92h68l-69 -134h52z" />
    <glyph glyph-name="uniE626" unicode="&#xe626;" 
d="M512 896q-104 0 -198.5 -40.5t-163.5 -109.5t-109.5 -163.5t-40.5 -198.5t40.5 -198.5t109.5 -163.5t163.5 -109.5t198.5 -40.5t198.5 40.5t163.5 109.5t109.5 163.5t40.5 198.5t-40.5 198.5t-109.5 163.5t-163.5 109.5t-198.5 40.5v0zM512 -63q-91 0 -174 36t-142.5 96
t-95 142.5t-35.5 172.5q0 91 36 174t96 142.5t142.5 95t172.5 35.5q91 0 174 -36t142.5 -96t95 -142.5t35.5 -172.5q0 -91 -35.5 -174t-95 -142.5t-142.5 -95t-174 -35.5v0zM711 257q14 0 24.5 -7.5t10.5 -20.5q0 -10 -11 -18.5t-24 -8.5h-172v-93q0 -11 -9.5 -19t-24.5 -8
t-24.5 8t-9.5 19v96h-172q-13 0 -23.5 8.5t-10.5 19.5t9.5 19t24.5 8h172v83h-172q-14 0 -24 7.5t-10 19.5q0 11 9.5 17.5t24.5 6.5h144l-147 220q-9 8 -3.5 19t20.5 16q13 4 26 0.5t18 -11.5l152 -220l147 220q8 10 22 13t26 -2q14 -6 18 -15t-4 -20l-148 -220h141
q14 0 24.5 -7.5t10.5 -19.5t-10.5 -20t-24.5 -8h-172v-82h172v0zM711 257z" />
    <glyph glyph-name="uniE628" unicode="&#xe628;" horiz-adv-x="1029" 
d="M516 658h6v-4q4 0 8 4q13 -4 29 -4v-8q2 0 2.5 2.5t3.5 1.5l-1 -2q-2 -2 -1 -4q-4 -1 -8 1t-8 1q0 2 6 2v2q-3 2 -6.5 0.5t-1.5 -4.5q-1 2 -7.5 2t-7.5 2q0 -2 -2 -2t-4 1t-4 1zM670 597q4 -2 12 -2q0 -1 -1.5 -2.5t-0.5 -3.5q-1 2 -6.5 3.5t-5.5 2.5q0 2 2 2zM694 574h6
q0 -2 2 -2q-4 -4 -6 -4q0 1 -1 2.5t-1 3.5zM705 572q0 -2 2.5 -2t1.5 -2q-3 1 -4 -0.5t-3 -1.5q-1 2 1 3.5t2 2.5zM244 452v-9q-3 0 -6.5 -1t-4.5 -1q1 1 2 4t3 5t6 2zM489 38q3 0 3 -4h-5q0 1 1 1.5t1.5 1t-0.5 1.5zM178 531l2 -2q1 1 1.5 3t0 4t-1.5 2q3 3 6 11t4 11h9v-8
q3 0 1 4l-1 4q0 2 1 5t1 5q-2 1 -2 -2t-2 -2q2 2 2 8l4 3q1 2 2 3t2 3q2 2 2 8q2 2 6 2v4q0 1 3 2q2 1 3 2l2 2v4q3 0 3 -2q-1 -1 -1 -2q2 -1 2 1t2 1q0 1 -2 2t-2 2q64 71 131 99q2 3 4 4q3 1 2 -2v-4v6q1 0 3.5 1t4.5 1t3 -2v4q4 2 12 4t12 4h2v-1q0 -2 2 -1q22 11 31 8
q0 1 1.5 2t0.5 2q7 -1 19 1t20 1q1 -1 -0.5 -2t-1.5 -2h6q-3 2 -0.5 3.5t2.5 2.5q29 5 33 2q3 1 6 1t6 1q1 -3 4 -3t8 1t9 0v-6q6 0 6 4q8 -1 8 -4q2 0 2 4q17 -2 45 -10q1 -2 -0.5 -2.5t-1.5 -1.5q-2 0 -2 2q0 -2 -2 -3t-2 -3q2 1 6 2t6 2q0 2 -2 2q6 2 14.5 -2t12.5 -4v-4
q2 -1 2.5 0.5t1.5 1.5q10 -5 66 -35v-4q3 1 6 -2t6 -2q0 -15 -2 -21q-6 0 -6 2l2 -2q1 0 1 2t1 2q-2 2 -4 1t-2 -3q-5 3 -19.5 12.5t-21.5 13.5t-19.5 10t-23.5 9v5q-1 0 -2 -2t-3 -1q0 3 -2 3l2 2h-2q-1 0 -1 -3l-1 -2q0 9 4 11q-2 2 -2 4h-4q2 -2 1 -5t1 -3l-2 -2
q-18 6 -22 6q-1 3 -2 4t-0.5 1.5t1.5 0.5q2 0 1 2q-2 1 -2 -1t-2 -1q0 -1 1.5 -2.5t0.5 -3.5q-2 2 -10 2v6q-3 -6 -9 -5t-10 5q-1 -3 -9 -1t-11 1q0 1 -2 2t0 2q-5 2 -5 -2q-16 1 -47 -1t-43 -1q-2 -1 -0.5 -2t0.5 -2q-17 -2 -33 -7t-34.5 -13t-28.5 -11q-5 -5 -20.5 -13.5
t-20.5 -15.5q-3 0 -5 -2.5t-5 -1.5q-4 -4 -6 -8q-5 -1 -12 -8t-9 -8q-11 -8 -14 -17h-4q-1 -5 -6.5 -9t-5.5 -9h-5v-6q-16 -15 -36 -55l-2 2q-1 0 -1 -3l-1 -2q-2 -2 0.5 -2t1.5 -2q-3 -1 -4 0.5t-3 1.5q0 1 2 2.5t0 4.5q3 -2 4.5 0t2.5 2l-2 2q-2 -1 -2 -2q1 2 -1 2.5
t-2 1.5q-1 -1 1 -4l2 -2q-3 0 -4 -5t-3 -6q-3 0 -4.5 1t-2 3t-1.5 2zM313 675q-4 0 -4 -6q3 -2 3.5 0t0.5 6zM492 732q3 -1 3 2q-1 2 -3 2v-4zM469 726q4 0 4 6q-1 -1 -2 -3t-2 -3zM582 718v6h-4q1 -1 2 -3t2 -3zM610 714q0 6 -4 6q0 -6 4 -6zM623 710h2l-4 4q-1 -1 0 -2
q2 0 2 -2zM641 703h4q0 5 -2 5q1 -1 -1 -1.5t-1 -3.5zM653 701q2 0 3 1.5t-1 3.5q-2 -1 -2 -5zM655 701q1 -5 2 -6q-1 6 -2 6zM244 609h-6h6zM193 552h6v4q-2 0 -2.5 -2t-3.5 -2q2 4 0 4v-4zM782 585q-2 2 -3 4t-3 4q6 0 6 4q-4 -2 -8 -2v4h4q1 3 0.5 5t-1.5 4l-1 1l-2 -1
q-1 -2 -2 1v-2h-6q3 3 0.5 3t-5.5 2t-1 5l-2 1v-2q0 -2 -2 -1q0 7 -4 7q-2 2 1 1q3 0 3 1q-7 1 -11.5 4t-8.5 7.5t-7 6.5v2h1q2 0 1 2q-2 1 -2 -1t-2 -1t-3 2.5t-1 3.5t0.5 4t2 4.5t1.5 4.5q0 1 -2 1t-2 1q4 3 9 -0.5t5 -8.5q-2 3 -3.5 1.5t-2.5 0.5q-2 0 -0.5 -3t0.5 -5
q2 1 0 4q13 0 24.5 -13t16.5 -15v-6h6q0 -3 2 -5.5t2 -3.5h-4q1 -2 3.5 -0.5t2.5 0.5l4 -4l-2 -2q1 -2 2.5 -0.5t2.5 0.5q4 -8 8 -10v-4h4zM145 417q3 8 3.5 18t1.5 15q0 5 4 17.5t4 20.5h4q-1 3 0 8t0 9q1 0 3 -1.5t5 -0.5q0 -1 -1.5 -2t-0.5 -2h6q-2 7 0 14
q-2 0 -2.5 -2.5t-1.5 -3.5q-1 0 -2.5 1.5t-3.5 0.5l2 2q1 2 0 4h6q1 2 0 4l-2 2q2 0 2 8h4q-1 -2 -2 -5t-2 -5q3 -2 5 3t3 5v-6q6 0 6 6q1 -1 2 -3t2 -3q0 -2 -2.5 -6t-1.5 -10q-2 -1 -1.5 2.5t-0.5 3.5v-6q-1 -3 -5.5 -16t-6 -17.5t-4 -14.5t-3.5 -19.5t-1 -20.5h-19z
M844 331l16 -4q-2 -5 -3 -11t-1.5 -14t-1.5 -12l-4 -4q-2 -6 -2 -19l-4 -4v-6q-1 -2 -4 -2v-6q0 -1 -2 -2t-2 -2v-8q0 -3 -5 -3q0 -1 -1 -4l-2 -8l-3 -6l-6 -6v-4q0 -1 -2 -1t-2 -1q-1 -2 -2 -6t-2 -7q-1 -1 -4 -3t-4 -3t-1 -4t-1 -4t-3 -2t-3 -2q-2 -2 -4 -6t-4 -6.5
t-5 -3.5v4q-1 0 -2 -1t-2 -1h4q-5 -11 -20.5 -25t-20.5 -20q-2 -1 -1 1q0 3 -1 3v-6q-2 -1 -2 1t-2 1q-1 -2 1 -2t1 -2q-4 -3 -11 -8.5t-13 -9.5t-13 -7q-2 0 -2 4q-1 -1 0 -4v-2q-7 -4 -23.5 -12.5t-29.5 -14t-27 -8.5v4q-4 -1 -1 -4q1 -1 1 -2q-1 0 -4 -1t-5 -0.5t-3 3.5
v-6q-4 0 -12 -4q-2 0 -2 4q-2 0 -4 -2t-4 -2q0 1 -0.5 1.5t-1.5 0.5q-1 -2 -3.5 -3t-7 -2t-6.5 -1q0 1 1.5 2t0.5 2q-2 -3 -7 -4.5t-13 -2.5t-10 -1q-1 2 -17 0.5t-24 -0.5q5 5 0 10q2 1 2.5 -0.5t1.5 -1.5l2 4q0 1 -3 2t-3 2h10q1 -2 -1 -4t-1 -4q1 -1 2 2t2 0v6q10 0 10 2
q1 -2 3.5 -0.5t4.5 0.5v-10q-2 -1 -2 2t-2 2v-4q5 -2 7.5 2t5.5 4q0 -1 -2 -2t-1 -2q0 -1 3 -1.5t2 -2.5q2 -1 2 1t2 1l2 -4v4h-4q-1 3 0.5 6t-0.5 4q1 0 5 1t7.5 1t5.5 -2q2 3 12 4t13 2q1 1 1.5 0.5t0.5 -1.5q0 -2 2 -1q0 -2 -2 -2h6q0 2 -1.5 3t-0.5 3q27 5 35 11l2 -2
q1 3 6.5 5t7.5 1q10 6 30.5 16.5t28.5 15.5v5q2 0 5 1.5t6 0.5q-2 0 -2 2q6 2 16.5 12t17.5 12v4q3 -1 4 -4q-1 4 1.5 7.5t7 8t6.5 7.5q6 0 6 6l2 -1q2 -1 2 1q0 6 8 14l2 -4q1 1 -1 3t-1 3q2 3 6 8.5t7 8.5q0 -4 -3 -4l3 -3q0 9 4 21q2 -1 3.5 0.5t2.5 1.5q1 2 -1 2t-1 2
q30 33 45 113zM563 38q-1 -1 -1.5 -0.5t-0.5 1.5q0 2 -2 1q1 -4 -0.5 -6.5t-1.5 -3.5h4q0 3 1 5t1 3zM784 183q1 -2 -1 -2t-1 -2q3 -1 3 3l-1 1l2 -4l-2 -2q-1 -2 0 -4q2 0 3.5 2.5t5.5 1.5q-2 3 0 5l2 1q-1 1 -4 0t-7 0zM758 615q2 2 3.5 0t2.5 -2q0 4 -4 9q0 -2 -1.5 -4
t-0.5 -3zM764 615v-4q5 -2 6 4q0 2 -2 2q1 -1 -1 -1t-3 -1zM854 323h4q0 3 -4 3q-3 0 0 -3zM797 194h4l-4 4v-4zM707 93v4h-2q0 -4 2 -4zM686 77q4 0 4 4q-1 1 -2 3q-1 3 -2 3t0 -5v-5zM676 75v-4h6l1 2l-1 2h-6zM655 58v4h-4q2 -4 4 -4zM631 50q1 2 -2 4v-2v-2h2zM614 50h4
v-2q5 0 5 6q-2 0 -4 1.5t-5 0.5v-6zM502 28q0 -4 2 -4q0 2 3 3.5t3 2.5q-2 -1 -2 2t-2 2q1 -2 0 -4t-4 -2zM516 26v4h-2v-4l2 -2v2zM176 511q4 0 4 4q-4 0 -4 -4zM170 488q0 5 -4 5q0 -5 4 -5zM174 480v4h-4q-2 -1 -0.5 -2.5t4.5 -1.5zM170 478q-1 0 -2.5 1.5t-3.5 0.5
q1 -2 6 -2zM154 419h4q0 4 -2 4q0 -1 -2 -1.5t0 -2.5zM252 144q1 -2 -0.5 -3.5t-1.5 -2.5q2 -1 3.5 0.5t2.5 1.5v4h-4zM248 138q0 6 -2 6q1 -1 1 -3q0 -3 1 -3zM252 130q4 0 4 4q-2 -1 -2 1t-2 1v-6zM498 656q2 -2 2 -4q-7 1 -20.5 -1.5t-18.5 -0.5q-4 -3 -17.5 -5t-17.5 -5
h-2v2q-1 -2 -6 -4t-6 -4q-13 -3 -25 -9t-26.5 -15t-20.5 -13q0 2 2 5t2 5h-4q21 18 53 31q0 1 1.5 2t0.5 2q7 0 16.5 4t16.5 4v-4v6q2 -2 4 -1v-3q2 -1 2 1t2 1q1 2 -1 2t-1 2q21 6 25 0q2 0 3.5 2t2.5 2q2 0 1 -2t1 -2q3 0 2 3v1q4 2 10.5 2.5t9.5 -2.5q0 2 9 2v-4h2v4h10
q0 -1 -1.5 -2.5t-2.5 -1.5q0 -1 2 -2t2 -2h-10q3 2 2 3t-4 1zM473 652q4 0 8 4h-3q-4 -1 -5 -4zM588 642q0 3 5 3t5 -3q0 2 2 2q2 -3 6.5 -5.5t7.5 -0.5v-4h-4l2 -2l1 2h1q0 -2 2 -2q-2 -2 -2 -4q-12 0 -12 6h2v-1q0 -2 2 -1q0 1 -2 3t-2 3v-6q-1 0 -4.5 0.5t-5 1t-4 1.5
t-4 3t-2.5 4q-2 -2 -7 -0.5t-8 0.5v10q2 1 3.5 -0.5t2.5 -1.5v-6q4 -1 11 1q5 1 5 0t-1 -3zM635 626q4 1 7 -1.5t5 -2.5q0 -1 -1 -3t-1 -3.5t2 -2.5q0 1 1 3t1 4h2v-2q0 -2 2 -1q-1 -3 0 -6q-6 0 -6 -2q-2 1 -5 3t-5 3l4 5l-6 6q-1 -2 1 -4t1 -5q-1 1 -3.5 2t-3.5 2t-1 3
q-1 0 -2.5 -2t-3.5 0l-1 2q-1 1 1 2h4q1 2 -0.5 3t-1.5 3q1 0 4.5 -1.5t5.5 -0.5v-4zM322 593q4 0 4 2h4q1 1 0 4q1 1 1.5 0.5t0.5 -1.5q0 -2 2 -1v2h-1q-2 0 -1 2q2 0 3 2t3 2q0 -2 -1.5 -6.5t-0.5 -7.5q-3 -1 -7.5 -5t-9.5 -5q0 -2 -6 -9h-2q0 2 2 3.5t2 3.5h-2
q-4 -9 0 -13q-9 -7 -22.5 -26t-22.5 -27q0 4 2 4h-6q1 1 3.5 4t2.5 6v-4q4 4 9 4v2h-5q-1 3 0.5 5t1.5 4q3 0 5.5 3.5t5.5 2.5v6q2 1 2 -1t2 -1q-4 3 0.5 7t3.5 7q2 -1 4 2t3.5 4.5t2.5 -2.5v6l4 4q3 3 6 3q1 -1 1 -2.5t-0.5 -3.5t-0.5 -3q1 3 4 9t2.5 6.5t0.5 7.5zM684 591
q3 1 5.5 -2t3.5 -5t3 1q0 -6 -4 -11q0 2 -1 3t-3.5 2t-3.5 2q0 4 6 4l-6 6v-6h-4h2q0 1 1 3t1 3zM260 505q0 2 -1 4.5t-1 3.5l2 2h8q0 -2 -1.5 -4.5t1.5 -3.5q-4 -4 -8 -16.5t-8 -16.5q1 -3 0.5 -4.5t-1.5 -3t-1 -2.5q-2 0 -2.5 0.5t-0.5 1.5t-1 0h-2v-10q-2 -1 -2 -2h-6
q1 9 4 17.5t7.5 18.5t6.5 15h6zM258 499q6 0 6 4q-6 3 -6 -4zM729 230q2 -1 2 -4t-1 -6t-1 -4h-4q0 -4 -4 -8t-4 -8q-5 -3 -12 -11t-13 -10v-4q-4 1 -7.5 -3t-6.5 -1q-3 -1 -1 -3t1 -3q-5 1 -7 -1.5t-3 -2.5v2q1 2 0 2q0 -7 -9 -4q0 -3 3 -2q-5 -6 -17.5 -13t-15.5 -10l-2 2
q-3 -8 -19 -8q-5 -5 -13.5 -8t-19 -5.5t-16.5 -4.5l-2 2q-2 -2 -9 -3t-9 -3v4v-4q-9 0 -21.5 -1.5t-17.5 -1.5q0 4 0.5 4.5t3.5 0.5v2q0 1 -2 1t-2 1q-1 -1 -3 -2t-3 -2q1 -3 4 -1q1 1 2 1q0 -1 -2 -2.5t0 -4.5q-13 5 -19 2v5q-2 0 -3 -2.5t-3 -2.5t-2.5 2.5t-1.5 2.5
q-9 -2 -19.5 0t-23.5 6.5t-18 5.5q1 2 -1.5 2t-0.5 2q-3 1 -3 -1t-2 -1q-2 4 -10 4q0 6 2 6q-1 2 -3.5 1t-2.5 -3q-1 0 -3.5 1t-4.5 1q0 1 -1 2.5t1 1.5q-14 0 -23 13q0 -3 -2 -3q0 1 -1 3.5t-1 5.5h-4q-1 -2 1 -2t1 -2q-8 4 -10 8h4v1q-1 2 -1 3.5t1 3.5q-4 -4 -4 -8
q-1 0 -2.5 1.5t-3.5 0.5q-1 2 1 4t1 4q-2 0 -2.5 -2t-1.5 -2q1 2 -1 2t-1 2q4 0 4 4q3 -2 16.5 -12t22.5 -15l-2 -2q-2 -1 0 -4q4 0 4 4q6 -1 14 -7t14 -7q2 -2 -1 -2q-3 1 -3 0q2 -1 6.5 0t6.5 0q0 -4 -2 -4h2q1 0 1 2t1 2q12 -4 16 -4q-1 -2 -2 -2h2v4q12 -6 14 -8v4
q9 -4 15 -4q0 -4 -2 -4q2 0 2 -2q0 4 4 6q4 -2 14 -2v-4q4 2 29 2q-1 -2 -2 -2l2 2q7 -1 22.5 1.5t22.5 0.5q6 6 8 2q2 2 10 4t11 4q2 1 1 -1q0 -3 1 -3q1 5 7 7t9 -1v4q9 1 21.5 8.5t19.5 8.5q8 12 18 10v2q27 17 58 55q6 0 8 -2v14q28 37 37 78q3 -1 6 2t6 2
q-8 -31 -33 -78q-5 -5 -10 -4zM688 179q-1 0 -2 -3q-1 -2 -2 -3h4v6zM682 173h-2q-1 -1 -4 0q0 -1 3 -2q2 -1 3 -2v4zM655 153q0 6 -2 6q1 -2 1 -3v-2q-1 -3 1 -1zM487 108v4h-4q0 -3 1.5 -4.5t2.5 0.5zM283 120q-3 -2 -3 -4.5t3 -3.5h-4v-4q0 -1 2.5 -1.5t1.5 -3.5q1 0 2 2
t1 4.5t1 4.5h-4l1 2q2 1 3 0q-1 -3 1 -4h1q1 0 2 1.5t2 0.5q-1 -3 2 -4t2 -5q21 -5 18 -14q1 -1 3.5 -2t3.5 -2l4 4q3 -1 8 -5t8 -5q1 -2 0 -4l-2 -2q4 0 4 4q8 0 16 -8q2 -3 0 -3l-2 -1h2q2 0 0 4q1 -2 9 -2q0 -2 1 -2q3 0 3 -2v2q28 -13 45 -15v-4q1 0 3.5 1t4.5 1v-6h-4
l2 -2q1 -2 0 -4q-2 -1 -2 1q1 3 0 3l-2 -3q-1 -3 0 -5q-4 1 -11.5 3t-11.5 3v6h-6l-2 6q0 -1 -1 -3t-1 -3q-2 0 -6 1.5t-8 0.5q0 1 -1 3.5t-1 4.5l2 -2q3 3 -4 11q0 -7 -2 -9q-2 -1 -2 1t-3 1q0 -1 3 -3.5t2 -4.5q-11 5 -23 8q0 7 -2 9q-2 -1 -0.5 -3.5t0.5 -3.5q-8 8 -14 7
q0 6 4 6q0 1 -1 2t-1 2q-2 -3 -7 -0.5t-6 -1.5q-7 3 -18.5 11t-13.5 9v6q-2 0 -2 -4q-1 1 -4 3.5t-7 2.5q0 9 2 11q2 -1 2 -2q3 1 1.5 2t-1.5 2q2 1 5 4h2zM330 77h4q0 4 -4 4v-4zM350 69v-4q3 0 4 2v2h2q1 0 0 2q-2 1 -3 -0.5t-3 -1.5zM397 50q0 -1 1 -2t1 -2q0 2 2 2
q0 6 -4 2zM412 36q0 11 -2 12q-5 -10 2 -12zM436 46q2 -1 5 -1l1 -1q-4 -1 -6 -4q1 0 3.5 -1.5t4.5 -0.5q-2 -2 -2 -8q-3 -1 -6 1t-6 1l3 1l1 1q0 2 1 5.5t1 6.5zM489 30q0 -1 -2.5 -3t-1.5 -5h-4q0 2 2 4.5t3.5 3t2.5 0.5zM481 34q0 -12 -2 -12v6q0 -2 -1.5 -3t-4 -1.5
t-4.5 -0.5t-5.5 0.5t-4.5 0.5l1 2l2 2t3 2v-4q2 3 0 4t-8 0h-6q-1 -2 1 -2t1 -2q-4 -1 -5 -0.5t-2.5 2t-3.5 2.5q2 1 2 3t-0.5 5t0.5 6q4 -3 11 0q0 -4 2 -4v4q6 0 6 -4q12 3 20 0q-1 -3 0 -6h1q0 1 -3 0zM473 34q0 4 -4 4q0 -1 -1.5 -2t-0.5 -2q3 3 6 0zM655 615
q1 0 2 -1.5t2 -0.5v-4q4 1 6.5 -0.5t4.5 -1.5v-6q-3 1 -3.5 -0.5t-1 -1.5t-3 1t-5.5 1q-1 1 -1 4q0 2 -1 2q0 2 0.5 2.5t1.5 0.5t0 1q-2 2 -2 4zM502 234q6 0 6 -4q-2 0 -6 4zM909 337q-3 0 -6 -1t-6 -1q1 2 -1.5 3t-2.5 3q-2 0 -1 -3q0 -2 3 -1q-27 -14 -55 -16q0 6 -6 6
q0 -1 1.5 -3.5t0.5 -5.5q-5 0 -26 -6.5t-32 -3.5q-1 0 -1 -1q0 -2 -1 -3q-36 -10 -108.5 -29.5t-108.5 -29.5q-2 0 -3 2q0 2 -1 2t-1 -2q0 -3 -1 -4q-5 -1 -19.5 -4.5t-21.5 -1.5q0 1 3.5 1.5t2.5 4.5q2 0 4 -1t2.5 -1t1 2.5t2.5 1.5q0 1 -1 4.5t-1 5.5q2 -3 3 -2t1 4
q9 0 9 -2q1 0 1 1q0 2 1 3q18 4 51 13.5t39 11.5q15 0 33 10q3 -2 11.5 1t12.5 3q1 -3 -1 -3t-3 -1q2 -1 3.5 0.5t4 5t4.5 4.5t6 0.5t5 1.5q0 -6 2 -6q1 0 1 2q0 3 1 4q8 2 24 7t29.5 8t28.5 4q4 4 17.5 7.5t16.5 6.5q6 -2 20 3t21 5q0 -3 3 -5.5t3 -4.5q1 2 -3 5.5t-3 6.5
q4 1 5 -1l1 -3q2 0 2 2q0 3 1 4q2 -1 5.5 0t4.5 1.5t2 -1.5q26 11 39 8q1 2 -1 2t-1 3q8 0 8 2q1 -1 10 2q1 -2 -1 -2t-1 -2q2 0 3.5 3t2.5 3q12 -1 32 6.5t30 3.5q3 2 3.5 6t-3.5 6q-2 0 -1.5 -3.5t-2.5 -2.5q0 11 -8 34.5t-5 37.5q2 1 2 -1.5t2 -2.5q3 1 0 3q-2 2 -2 3
q2 0 2 2q0 1 -2 1q-3 0 -4 1q-1 0 -1 -2q0 -3 -1 -4q-5 11 -12 38.5t-12 39.5q-2 2 0 4.5t2 3.5t-1.5 1t-2.5 1q-4 12 -10 34.5t-9 34.5q3 -2 5.5 2.5t4.5 4.5q-3 0 -6 6q-1 0 -1 -2v-4q0 -3 -1 -5q-4 -1 -4.5 4.5t-3.5 6.5h6q1 0 1.5 3t2.5 3l-4 4q-2 0 -2 -4q-2 0 -1.5 1
t-0.5 3q-3 1 -6 -1.5t-4 -2.5q0 -2 2 -4t2 -4q-3 -2 -10.5 -5.5t-10.5 -5.5h-1q-1 0 -1 2q0 3 -2 3l37 4v8h-4q-1 -1 -1 -5t-1 -5q-17 -4 -61.5 -16.5t-69.5 -16.5v8q-1 0 -2 -1t-2 -1q4 -4 2 -10q-171 -44 -240 -66q-5 1 -15.5 -3t-12.5 1q-1 -1 -2 -3t-2 -3q-7 1 -8 1.5
t-8 -2.5l-7 -3v6h-6q1 -3 0 -6q-1 2 -5.5 0.5t-8.5 -0.5q-2 0 -2 -2q0 -3 -1 -4q-4 2 -0.5 6.5t0.5 5.5h5v4q-2 0 -3 -1.5t-4 -0.5l-1 -3q-2 -3 -5 -3q4 4 4 6q-4 -4 -10 -4q3 0 4.5 -3.5t5.5 -2.5v-6q-1 0 -3.5 5t-6.5 5q0 -2 -6 -8q1 -2 2 -1l3 2q1 2 3 1v-4q-6 0 -8 -2
q-1 1 -5 2.5t-5 5.5q-3 -2 -1 -4l1 -2q-6 6 -6 12q-3 1 -5 -2q-1 -2 -2 -2q5 -4 7 -4v-8q1 -1 1.5 -0.5t0.5 1.5q0 2 2 1v-2h-1q-2 0 -1 -2q-160 -41 -238 -64q-4 0 -8.5 -1t-9 -2.5t-6.5 -2.5q-3 0 -3 4h-6q-1 -2 1 -3t1 -3q-2 1 -8.5 -1.5t-7.5 1.5q-3 -6 -12 -7.5
t-15 3.5q0 -2 1.5 -3t0.5 -3q-3 -1 -4 2t-4 2q0 -1 1 -2t1 -2q-2 -2 -4.5 -0.5t-3 1.5t-3 3.5t-3.5 5.5q-2 -1 -0.5 -3t0.5 -3q-1 0 2 -10q0 -3 -2 -3q0 1 3 5t5.5 7.5t1.5 4.5q-2 -2 -2 -6q-4 0 -20 -4q0 1 1 2t1 2q-6 0 -6 -6q-3 0 -3 2q-1 0 -1 -1.5t-1 -3.5q-2 3 8 9
q7 3 7 2v4q-2 0 -3 -1t-2 -3l-1 -2q0 -2 3 1q1 2 3 1v-4q-5 -3 -10.5 -7.5t-7 -4.5t-7.5 1q-2 0 -1 -1q2 -2 1 -3q-3 -1 -9.5 -2t-8.5 -2q0 4 2 6q-2 1 -4.5 3t-4.5 3t-3 0q2 -4 10 -4q-5 -9 -6 -10q-3 0 -3 3l-1 1q-1 -1 -2.5 -3t-2.5 -3q-8 0 -20 -4q0 6 -2 6q-1 0 -1 -2
q0 -3 -1 -4q0 -3 -1 -0.5t-1 4.5q-2 0 -6 -3.5t-9 -2.5v6q-1 0 -0.5 -3t-3.5 -1v4q-2 0 -4 1t-4 1q-2 -2 -2 -16h4q1 0 1 2v3q0 2 1 3q3 1 4 0l2 -2q0 -4 1 -10t1 -9q-2 0 -2 3h-2q0 1 2 2t0 4l1 -2v-1q-1 1 -3 1q-1 0 -1 -1.5t-1 -2.5h-6q0 6 -3 14t-3 14q2 0 3.5 -1
t2.5 -1t1 1q0 2 1 3q4 -1 10.5 1.5t8.5 -1.5l3 2q3 2 3 4q2 2 3 0.5t1 -4.5q0 4 2 5t6.5 1.5t7.5 1.5q-1 -1 1 -2.5t1 -5.5h4v4q1 3 -4 2q2 4 6.5 6t8.5 -1q1 0 1 1.5t1 2.5q1 0 2 -1t2 -1q7 4 25 7.5t24 6.5l-8 -4q1 0 16 2q-1 -4 2 -4q1 -1 3 0h1q0 2 -1.5 3t-0.5 3
q8 1 27 7t31 5q1 0 1 1.5t1 2.5q7 2 22.5 6.5t22.5 6.5q12 1 32 7t25 7q62 14 131 35q5 0 15.5 3t17.5 1q1 0 1 1.5t1 2.5l6 -2q0 1 2 2t2 2q43 11 147.5 39t161.5 43q2 0 3 -2.5t4 -1.5q1 2 -1 3t-1 3q10 1 30 6.5t23 5.5l18 6q14 2 35 8t27 7q-2 -3 2 -5q1 -1 2 -1t-2 3
q-1 1 0 3q6 1 9.5 2t4 1.5t1.5 1t1.5 1t4 1t9.5 1.5q0 -4 3 -13t-1 -10q0 -1 2 -1t3 -1q0 -5 4.5 -19.5t1.5 -21.5q3 -3 6 -14t4 -14q-2 0 -3 1.5t-3 0.5q16 -10 12 -35q2 0 1.5 4t2.5 2q-1 -5 3.5 -16t0.5 -17q6 -7 10.5 -28.5t10.5 -28.5q1 -14 7 -33.5t7 -25.5
q-24 -7 -47.5 -15t-44.5 -14h-27zM512 513q0 -2 3 -2.5t3 -1.5q-1 2 0 4l2 2q-3 -4 -8 -2zM954 630q0 7 -6 4q0 -4 6 -4zM952 599q0 6 -4 6q0 -4 4 -6zM895 611q1 1 3 2q3 1 3 2h-6v-4zM813 595q3 -1 5 1t5 1v4q-6 2 -10 -6zM797 593q1 3 -0.5 3.5t-3.5 0.5q0 -4 4 -4z
M967 527q1 1 3 2q3 1 3 2h-4q1 0 -1 -0.5t-1 -3.5zM973 513q2 0 2.5 1.5t0.5 5.5l-1 3q-4 0 -6 2q0 -2 2.5 -4.5t1.5 -7.5zM999 435v6h-4q-1 -3 2 -4q2 -1 2 -2zM1006 435h-5q2 -3 -1 -5t-3 -5q4 -1 4 -2q2 0 3 1.5t4 0.5v6q-2 1 -2 -2q0 -4 -2 -4q0 1 -2.5 2t-2.5 2h5
q2 2 2 6zM1006 407q4 4 4 8q-1 0 -1.5 -1t-1.5 -3.5t-1 -3.5zM905 339v4h-4q-1 -3 0 -4.5t4 0.5zM565 257h4q0 4 -4 4v-4zM551 249v6h-4q-3 -6 4 -6zM199 429q3 -1 4 2l-2 2q0 -1 -1 -2t-1 -2zM133 413q0 -1 -2.5 -1.5t-1.5 -2.5q8 0 8 6h-4v-2zM123 411v4h-4q-2 -2 -0.5 -3
t4.5 -1zM86 396q2 3 -3 3l-3 -1q1 -2 6 -2zM47 388q0 6 -4 6q1 0 1 -2q1 -4 3 -4zM57 388v4h-4q0 -4 4 -4zM31 382q0 6 -6 6q0 -6 6 -6zM139 130q-22 -5 -32.5 -6t-32.5 -6q0 1 -1.5 4t-1.5 5.5t3 4.5q-6 2 -6 16q1 0 2 -1t2 -1t1 2t1 3q0 1 -3 1q-2 0 -3 1l-31 110q0 1 1 2
t1 2q-4 4 -6.5 13.5t0.5 13.5q-7 4 -11.5 21t-7.5 22v1q0 1 2 1t2 2q0 1 -2 1q-3 0 -4 1q0 8 -2 12q3 -3 5 2l1 2q4 0 4 -4q2 0 3 1t2 1v11q2 -1 2 -3.5t-1 -6t-1 -5.5q2 -1 2 1t2 1q0 -4 8 -31.5t6 -41.5q2 -1 4 2v-17q13 -18 16 -53q-3 -2 -5 -9.5t-5 -8.5q0 -2 4 -2
q0 2 4 5.5t2 8.5q0 1 1.5 0t1.5 -2t1 -1q2 0 3 -1q0 -7 4 -21t2 -22q1 0 2 1t2 1v-8q-6 0 -6 -2q2 -5 8 2q2 -4 0.5 -12.5t3.5 -10.5l6 12q3 1 5 -1t5 -1q0 2 -2 2q38 11 85 21.5t85 21.5q6 0 6 -2q2 0 2 1.5t1 2.5q4 0 4 -4q0 1 -0.5 3.5t2.5 2.5q14 3 73 19q13 0 15 4
q2 -3 12 2q0 -2 -1.5 -3t-0.5 -3q1 1 5.5 4t4.5 6q1 0 3.5 -1.5t4.5 -0.5q1 0 1 1.5t1 2.5q6 0 18.5 4.5t16.5 1.5q6 6 11 4q0 -1 -1.5 -2t-1.5 -2q1 -1 3.5 -2t3.5 -2q1 0 1 3q0 2 1 3q-2 0 -2 -2q-4 4 4 6h6q-5 -2 1 -3q1 -1 3 -1q-3 4 -1.5 3.5t4 0.5t1.5 5q6 0 11 1
t10.5 2.5t9.5 2.5q0 -1 -1 -2t-1 -2t2 -1q3 0 4 -1q1 2 -1 2t-1 2q2 0 2 2q2 0 3 -1t1.5 -3t1.5 -2q0 2 -2 1q-1 -1 0 -3q-2 0 -7.5 -1t-8 0t-2.5 5q-9 -4 -9 -11q-1 1 -4 2t-4 2q0 -4 -2 -12q8 8 14 10q1 -2 -1 -2t-1 -2q2 -1 2 1t2 1q-1 -2 2.5 -2t2.5 -2q-5 0 -12.5 -2.5
t-14.5 -1.5q1 0 1.5 2t0 4t-1.5 2q-2 -2 -3.5 -6.5t-2.5 -5.5l-6 2q-2 0 -1 -1q2 -2 1 -3q-10 -1 -33.5 -7.5t-30.5 -4.5q-1 0 -1 -2q0 -1 -1 -2q-2 0 -12 -2.5t-12 0.5q-1 0 -1 -1.5t-2 -2.5q-19 -5 -52.5 -14.5t-62 -17t-54.5 -11.5q0 2 -5 6q-2 -3 1.5 -5t3.5 -4
q-16 -2 -35 -10zM45 271q4 0 4 4q-6 0 -4 -4zM16 345h4q0 1 1 2q1 4 -3 2q1 -1 0.5 -1.5t-1.5 -0.5q-2 0 -1 -2zM31 318v7h-4q-3 -3 4 -7zM39 288h4q0 6 -4 6v-6zM115 136q2 0 2.5 3t1.5 3h-4v-6zM98 128q6 0 6 4q0 -1 -3 -1.5t-3 -2.5zM106 132q7 0 7 10h-4q-3 -4 -3 -10z
M96 128h4q0 2 -4 6v-6zM780 574z" />
  </font>
</defs>
</svg>
